<svg width="22" height="31" viewBox="0 0 22 31" fill="none" xmlns="http://www.w3.org/2000/svg">
<path d="M4.33417 1.55688L5.90479 1.05521C7.37479 0.585627 8.94688 1.34542 9.57688 2.83L10.831 5.7875C11.3779 7.07521 11.0746 8.59042 10.0815 9.5325L7.32083 12.1546C7.49146 13.7238 8.01792 15.2681 8.90167 16.7877C9.74142 18.258 10.8676 19.5448 12.2135 20.5721L15.5327 19.4638C16.7898 19.0452 18.1592 19.5279 18.9306 20.661L20.7273 23.3006C21.6256 24.619 21.4638 26.436 20.351 27.5531L19.1581 28.7504C17.971 29.9419 16.2765 30.375 14.7073 29.885C11.0046 28.73 7.60083 25.3015 4.49458 19.5994C1.38396 13.8885 0.287292 9.04104 1.20167 5.06271C1.58667 3.38854 2.77958 2.05417 4.33708 1.55688" fill="#E68F50"/>
</svg>
