<svg width="46" height="50" viewBox="0 0 46 50" fill="none" xmlns="http://www.w3.org/2000/svg">
<path d="M40.5 0H5.5C4.17392 0 2.90215 0.526784 1.96447 1.46447C1.02678 2.40215 0.5 3.67392 0.5 5V37.5C0.5 38.8261 1.02678 40.0979 1.96447 41.0355C2.90215 41.9732 4.17392 42.5 5.5 42.5H15.5L23 50L30.5 42.5H40.5C41.8261 42.5 43.0979 41.9732 44.0355 41.0355C44.9732 40.0979 45.5 38.8261 45.5 37.5V5C45.5 3.67392 44.9732 2.40215 44.0355 1.46447C43.0979 0.526784 41.8261 0 40.5 0ZM23 7.5C27.3175 7.5 30.5 10.68 30.5 15C30.5 19.32 27.3175 22.5 23 22.5C18.685 22.5 15.5 19.32 15.5 15C15.5 10.68 18.685 7.5 23 7.5ZM10.9425 35C12.3375 30.6925 17.1825 27.5 23 27.5C28.8175 27.5 33.665 30.6925 35.0575 35H10.9425Z" fill="#36454F"/>
</svg>
